<svg width="981" height="809" viewBox="0 0 981 809" fill="none" xmlns="http://www.w3.org/2000/svg">
<path opacity="0.5" d="M751.249 396.798L558.731 808.209H364.476L561.236 400.027L562.783 396.798H751.249ZM382.635 796.808H551.483L733.324 408.198H569.942L382.635 796.808ZM388.424 202.955L191.564 610.269H0.203613L193.156 206.206L194.703 202.955H388.424ZM886.553 202.955L888.089 206.228L980.663 402.476L886.285 606.962L884.749 610.269H689.18L788.824 402.498L692.821 202.955H886.553ZM801.483 402.498L800.291 404.959L707.294 598.868H877.468L968.082 402.52L879.316 214.356H710.957L801.483 402.498ZM18.2842 598.868H184.416L370.254 214.356H201.896L18.2842 598.868ZM516.502 0.2276L613.741 206.228L614.921 208.711L613.696 211.183L516.424 408.198H327.97L422.158 208.611L328.137 0.2276H516.502ZM434.716 208.711L433.603 211.093L345.961 396.798H509.343L602.251 208.6L509.265 11.6282H345.794L434.716 208.711Z" fill="#8F2529"/>
</svg>
